<svg xmlns="http://www.w3.org/2000/svg" width="1200" height="800" viewBox="0 0 1200 800" role="img" aria-labelledby="title desc">
  <title id="title">Category page option 2</title>
  <desc id="desc">A streamlined teal and blue category page with a minimal editorial layout.</desc>
  <defs>
    <linearGradient id="bg2" x1="0" x2="0" y1="0" y2="1">
      <stop offset="0%" stop-color="#f0fdfa"/>
      <stop offset="100%" stop-color="#eff6ff"/>
    </linearGradient>
  </defs>
  <rect width="1200" height="800" fill="url(#bg2)"/>
  <rect x="70" y="70" width="1060" height="660" rx="30" fill="#ffffff" stroke="#dfeefe"/>
  <rect x="100" y="100" width="250" height="600" rx="24" fill="#e0f2fe"/>
  <circle cx="225" cy="220" r="96" fill="#0ea5e9" opacity="0.9"/>
  <path d="M185 220 C200 185, 260 185, 275 220 C260 255, 200 255, 185 220Z" fill="#f0fdfd" opacity="0.7"/>
  <text x="130" y="390" font-size="18" font-family="Arial, sans-serif" fill="#0f172a" letter-spacing="2">CATEGORY</text>
  <text x="130" y="440" font-size="50" font-family="Arial, sans-serif" font-weight="700" fill="#0f172a">Breakfast</text>
  <text x="130" y="480" font-size="20" font-family="Arial, sans-serif" fill="#475569">Fresh starts • cozy classics</text>

  <g>
    <rect x="410" y="130" width="640" height="180" rx="24" fill="#0f766e"/>
    <text x="450" y="200" font-size="26" font-family="Arial, sans-serif" fill="#ecfeff">Seasonal favorite</text>
    <text x="450" y="248" font-size="46" font-family="Arial, sans-serif" font-weight="700" fill="#ffffff">French Toast</text>
    <circle cx="942" cy="220" r="60" fill="#99f6e4" opacity="0.75"/>
    <path d="M900 220 L940 260 L980 200" stroke="#0f172a" stroke-width="12" fill="none" stroke-linecap="round" stroke-linejoin="round"/>
  </g>

  <g>
    <rect x="410" y="350" width="300" height="200" rx="22" fill="#f8fbff" stroke="#dbeafe"/>
    <rect x="430" y="370" width="260" height="110" rx="16" fill="#dff7f7"/>
    <path d="M500 420 C540 365, 610 375, 650 420" stroke="#14b8a6" stroke-width="12" fill="none" stroke-linecap="round"/>
    <text x="430" y="520" font-size="26" font-family="Arial, sans-serif" font-weight="700" fill="#0f172a">Avocado Toast</text>
  </g>

  <g>
    <rect x="750" y="350" width="300" height="200" rx="22" fill="#f8fbff" stroke="#dbeafe"/>
    <rect x="770" y="370" width="260" height="110" rx="16" fill="#dbeafe"/>
    <rect x="810" y="395" width="180" height="14" rx="7" fill="#3b82f6" opacity="0.8"/>
    <rect x="810" y="422" width="140" height="14" rx="7" fill="#38bdf8" opacity="0.8"/>
    <text x="770" y="520" font-size="26" font-family="Arial, sans-serif" font-weight="700" fill="#0f172a">Berry Oats</text>
  </g>

  <g>
    <rect x="410" y="580" width="640" height="90" rx="18" fill="#ecfeff" stroke="#bae6fd"/>
    <text x="450" y="632" font-size="26" font-family="Arial, sans-serif" font-weight="600" fill="#0f172a">3 recipes in this category</text>
  </g>
</svg>
